# xmcd
#
# Track frame offsets: 
#        150
#        17447
#        36760
#        51589
#        68420
#        85940
#        102660
#        118147
#        137340
#        150742
#        166015
#        176500
#        187907
#        199695
#
# Disc length: 2776 seconds
#
# Revision: 1
# Processed by: cddbd v1.5.2PL0 Copyright (c) Steve Scherf et al.
# Submitted via: ExactAudioCopyFreeDBPlugin 1.0
#
DISCID=af0ad60e
DTITLE=Henrique Cazes - Relendo Waldir Azevedo
DYEAR=1997
DGENRE=Chorinho
TTITLE0=Delicado
TTITLE1=Pedacinhos do céu
TTITLE2=Carioquinha
TTITLE3=Vê se gostas
TTITLE4=Choro novo em Dó
TTITLE5=Chiquita
TTITLE6=Camundongo
TTITLE7=Mágoas de cavaquinho
TTITLE8=Você, carinho e amor
TTITLE9=Arrasta-pé
TTITLE10=Frevo da lira
TTITLE11=Brasileirinho
TTITLE12=Sobe e desce
TTITLE13=Minhas mãos, meu cavaquinho
EXTD=YEAR: 1997
EXTT0=
EXTT1=
EXTT2=
EXTT3=
EXTT4=
EXTT5=
EXTT6=
EXTT7=
EXTT8=
EXTT9=
EXTT10=
EXTT11=
EXTT12=
EXTT13=
PLAYORDER=
